<mxfile host="app.diagrams.net" modified="2023-07-29T17:47:40.763Z" agent="Mozilla/5.0 (Windows NT 10.0; Win64; x64) AppleWebKit/537.36 (KHTML, like Gecko) Chrome/115.0.0.0 Safari/537.36" etag="1PozWgs-k1nmbIn1nvnI" version="21.2.9" type="github">
  <diagram name="Page-1" id="8ce9d11a-91a2-4d17-14d8-a56ed91bf033">
    <mxGraphModel dx="2074" dy="1142" grid="1" gridSize="10" guides="1" tooltips="1" connect="1" arrows="1" fold="1" page="1" pageScale="1" pageWidth="1100" pageHeight="850" background="none" math="0" shadow="0">
      <root>
        <mxCell id="0" />
        <mxCell id="1" parent="0" />
        <mxCell id="kvP06SVsYaUnIYEFgwCU-11" style="edgeStyle=orthogonalEdgeStyle;rounded=0;orthogonalLoop=1;jettySize=auto;html=1;exitX=0.5;exitY=1;exitDx=0;exitDy=0;" edge="1" parent="1" source="kvP06SVsYaUnIYEFgwCU-1" target="kvP06SVsYaUnIYEFgwCU-4">
          <mxGeometry relative="1" as="geometry" />
        </mxCell>
        <mxCell id="kvP06SVsYaUnIYEFgwCU-1" value="需求" style="rounded=1;whiteSpace=wrap;html=1;" vertex="1" parent="1">
          <mxGeometry x="120" y="40" width="120" height="60" as="geometry" />
        </mxCell>
        <mxCell id="kvP06SVsYaUnIYEFgwCU-13" style="edgeStyle=orthogonalEdgeStyle;rounded=0;orthogonalLoop=1;jettySize=auto;html=1;exitX=0.5;exitY=1;exitDx=0;exitDy=0;" edge="1" parent="1" source="kvP06SVsYaUnIYEFgwCU-2" target="kvP06SVsYaUnIYEFgwCU-3">
          <mxGeometry relative="1" as="geometry" />
        </mxCell>
        <mxCell id="kvP06SVsYaUnIYEFgwCU-2" value="OA申请新项目评审流程" style="rounded=0;whiteSpace=wrap;html=1;" vertex="1" parent="1">
          <mxGeometry x="120" y="210" width="120" height="60" as="geometry" />
        </mxCell>
        <mxCell id="kvP06SVsYaUnIYEFgwCU-14" style="edgeStyle=orthogonalEdgeStyle;rounded=0;orthogonalLoop=1;jettySize=auto;html=1;exitX=0.5;exitY=1;exitDx=0;exitDy=0;" edge="1" parent="1" source="kvP06SVsYaUnIYEFgwCU-3" target="kvP06SVsYaUnIYEFgwCU-5">
          <mxGeometry relative="1" as="geometry" />
        </mxCell>
        <mxCell id="kvP06SVsYaUnIYEFgwCU-3" value="OA提新项目维护流程" style="rounded=0;whiteSpace=wrap;html=1;" vertex="1" parent="1">
          <mxGeometry x="120" y="300" width="120" height="60" as="geometry" />
        </mxCell>
        <mxCell id="kvP06SVsYaUnIYEFgwCU-12" style="edgeStyle=orthogonalEdgeStyle;rounded=0;orthogonalLoop=1;jettySize=auto;html=1;exitX=0.5;exitY=1;exitDx=0;exitDy=0;entryX=0.5;entryY=0;entryDx=0;entryDy=0;" edge="1" parent="1" source="kvP06SVsYaUnIYEFgwCU-4" target="kvP06SVsYaUnIYEFgwCU-2">
          <mxGeometry relative="1" as="geometry" />
        </mxCell>
        <mxCell id="kvP06SVsYaUnIYEFgwCU-4" value="确认需求和项目相关系列信息" style="rounded=0;whiteSpace=wrap;html=1;" vertex="1" parent="1">
          <mxGeometry x="120" y="120" width="120" height="60" as="geometry" />
        </mxCell>
        <mxCell id="kvP06SVsYaUnIYEFgwCU-15" style="edgeStyle=orthogonalEdgeStyle;rounded=0;orthogonalLoop=1;jettySize=auto;html=1;exitX=0.5;exitY=1;exitDx=0;exitDy=0;" edge="1" parent="1" target="kvP06SVsYaUnIYEFgwCU-6">
          <mxGeometry relative="1" as="geometry">
            <mxPoint x="180" y="459" as="sourcePoint" />
          </mxGeometry>
        </mxCell>
        <mxCell id="kvP06SVsYaUnIYEFgwCU-5" value="审核通过" style="rhombus;whiteSpace=wrap;html=1;" vertex="1" parent="1">
          <mxGeometry x="140" y="390" width="80" height="80" as="geometry" />
        </mxCell>
        <mxCell id="kvP06SVsYaUnIYEFgwCU-16" style="edgeStyle=orthogonalEdgeStyle;rounded=0;orthogonalLoop=1;jettySize=auto;html=1;exitX=0.5;exitY=1;exitDx=0;exitDy=0;" edge="1" parent="1" source="kvP06SVsYaUnIYEFgwCU-6" target="kvP06SVsYaUnIYEFgwCU-9">
          <mxGeometry relative="1" as="geometry" />
        </mxCell>
        <mxCell id="kvP06SVsYaUnIYEFgwCU-6" value="总库（胡定胜）分配测试编码" style="rounded=0;whiteSpace=wrap;html=1;" vertex="1" parent="1">
          <mxGeometry x="120" y="496" width="120" height="60" as="geometry" />
        </mxCell>
        <mxCell id="kvP06SVsYaUnIYEFgwCU-19" style="edgeStyle=orthogonalEdgeStyle;rounded=0;orthogonalLoop=1;jettySize=auto;html=1;exitX=0.5;exitY=1;exitDx=0;exitDy=0;entryX=0.5;entryY=0;entryDx=0;entryDy=0;" edge="1" parent="1" source="kvP06SVsYaUnIYEFgwCU-7" target="kvP06SVsYaUnIYEFgwCU-10">
          <mxGeometry relative="1" as="geometry" />
        </mxCell>
        <mxCell id="kvP06SVsYaUnIYEFgwCU-7" value="自行录单测试&lt;br&gt;确认分库维护完成" style="rounded=0;whiteSpace=wrap;html=1;" vertex="1" parent="1">
          <mxGeometry x="120" y="679" width="120" height="60" as="geometry" />
        </mxCell>
        <mxCell id="kvP06SVsYaUnIYEFgwCU-8" style="edgeStyle=orthogonalEdgeStyle;rounded=0;orthogonalLoop=1;jettySize=auto;html=1;exitX=0.5;exitY=1;exitDx=0;exitDy=0;" edge="1" parent="1" source="kvP06SVsYaUnIYEFgwCU-2" target="kvP06SVsYaUnIYEFgwCU-2">
          <mxGeometry relative="1" as="geometry" />
        </mxCell>
        <mxCell id="kvP06SVsYaUnIYEFgwCU-17" style="edgeStyle=orthogonalEdgeStyle;rounded=0;orthogonalLoop=1;jettySize=auto;html=1;exitX=0.5;exitY=1;exitDx=0;exitDy=0;" edge="1" parent="1" source="kvP06SVsYaUnIYEFgwCU-9" target="kvP06SVsYaUnIYEFgwCU-7">
          <mxGeometry relative="1" as="geometry" />
        </mxCell>
        <mxCell id="kvP06SVsYaUnIYEFgwCU-9" value="分库维护流程" style="shape=process;whiteSpace=wrap;html=1;backgroundOutline=1;" vertex="1" parent="1">
          <mxGeometry x="120" y="589" width="120" height="60" as="geometry" />
        </mxCell>
        <mxCell id="kvP06SVsYaUnIYEFgwCU-10" value="将项目编码和名称通知到需求方" style="rounded=1;whiteSpace=wrap;html=1;" vertex="1" parent="1">
          <mxGeometry x="120" y="769" width="120" height="60" as="geometry" />
        </mxCell>
        <mxCell id="kvP06SVsYaUnIYEFgwCU-20" value="分库维护流程" style="shape=process;whiteSpace=wrap;html=1;backgroundOutline=1;" vertex="1" parent="1">
          <mxGeometry x="400" y="40" width="120" height="60" as="geometry" />
        </mxCell>
        <mxCell id="kvP06SVsYaUnIYEFgwCU-41" style="edgeStyle=orthogonalEdgeStyle;rounded=0;orthogonalLoop=1;jettySize=auto;html=1;exitX=0.5;exitY=1;exitDx=0;exitDy=0;" edge="1" parent="1" source="kvP06SVsYaUnIYEFgwCU-22" target="kvP06SVsYaUnIYEFgwCU-23">
          <mxGeometry relative="1" as="geometry" />
        </mxCell>
        <mxCell id="kvP06SVsYaUnIYEFgwCU-22" value="检测项目维护" style="rounded=0;whiteSpace=wrap;html=1;" vertex="1" parent="1">
          <mxGeometry x="485" y="247" width="120" height="60" as="geometry" />
        </mxCell>
        <mxCell id="kvP06SVsYaUnIYEFgwCU-42" style="edgeStyle=orthogonalEdgeStyle;rounded=0;orthogonalLoop=1;jettySize=auto;html=1;exitX=0.5;exitY=1;exitDx=0;exitDy=0;" edge="1" parent="1" source="kvP06SVsYaUnIYEFgwCU-23" target="kvP06SVsYaUnIYEFgwCU-24">
          <mxGeometry relative="1" as="geometry" />
        </mxCell>
        <mxCell id="kvP06SVsYaUnIYEFgwCU-23" value="医嘱项目维护" style="rounded=0;whiteSpace=wrap;html=1;" vertex="1" parent="1">
          <mxGeometry x="485" y="361" width="120" height="60" as="geometry" />
        </mxCell>
        <mxCell id="kvP06SVsYaUnIYEFgwCU-43" style="edgeStyle=orthogonalEdgeStyle;rounded=0;orthogonalLoop=1;jettySize=auto;html=1;exitX=0.5;exitY=1;exitDx=0;exitDy=0;" edge="1" parent="1" source="kvP06SVsYaUnIYEFgwCU-24" target="kvP06SVsYaUnIYEFgwCU-25">
          <mxGeometry relative="1" as="geometry" />
        </mxCell>
        <mxCell id="kvP06SVsYaUnIYEFgwCU-24" value="接收编号配置" style="rounded=0;whiteSpace=wrap;html=1;" vertex="1" parent="1">
          <mxGeometry x="485" y="468" width="120" height="60" as="geometry" />
        </mxCell>
        <mxCell id="kvP06SVsYaUnIYEFgwCU-44" style="edgeStyle=orthogonalEdgeStyle;rounded=0;orthogonalLoop=1;jettySize=auto;html=1;exitX=0.5;exitY=1;exitDx=0;exitDy=0;" edge="1" parent="1" source="kvP06SVsYaUnIYEFgwCU-25" target="kvP06SVsYaUnIYEFgwCU-26">
          <mxGeometry relative="1" as="geometry" />
        </mxCell>
        <mxCell id="kvP06SVsYaUnIYEFgwCU-25" value="杂交组别维护" style="rounded=0;whiteSpace=wrap;html=1;" vertex="1" parent="1">
          <mxGeometry x="485" y="588" width="120" height="60" as="geometry" />
        </mxCell>
        <mxCell id="kvP06SVsYaUnIYEFgwCU-45" style="edgeStyle=orthogonalEdgeStyle;rounded=0;orthogonalLoop=1;jettySize=auto;html=1;exitX=0.5;exitY=1;exitDx=0;exitDy=0;entryX=0.5;entryY=0;entryDx=0;entryDy=0;" edge="1" parent="1" source="kvP06SVsYaUnIYEFgwCU-26" target="kvP06SVsYaUnIYEFgwCU-27">
          <mxGeometry relative="1" as="geometry" />
        </mxCell>
        <mxCell id="kvP06SVsYaUnIYEFgwCU-26" value="短信发送配置" style="rounded=0;whiteSpace=wrap;html=1;" vertex="1" parent="1">
          <mxGeometry x="485" y="688" width="120" height="60" as="geometry" />
        </mxCell>
        <mxCell id="kvP06SVsYaUnIYEFgwCU-27" value="补录配置管理" style="rounded=0;whiteSpace=wrap;html=1;" vertex="1" parent="1">
          <mxGeometry x="485" y="778" width="120" height="60" as="geometry" />
        </mxCell>
        <mxCell id="kvP06SVsYaUnIYEFgwCU-29" value="&lt;h1&gt;&lt;font style=&quot;font-size: 18px; font-weight: normal;&quot;&gt;检测项目维护 需注意&lt;/font&gt;&lt;/h1&gt;&lt;p&gt;工艺流程（若有特殊工艺流程，提项目申请的时候需注明，否则需要等总库改好后才能维护工艺流程）&lt;/p&gt;&lt;p&gt;分析项目 需重点关注对照编码维护正确（用于新老系统对应项目使用）&lt;/p&gt;&lt;p&gt;是否包含子项（若包含子项则需要维护）&lt;/p&gt;&lt;p&gt;是否指定部分子公司送检（若指定，则勾选“允许部分送检”并选中对应的子公司&lt;/p&gt;" style="text;html=1;strokeColor=none;fillColor=none;spacing=5;spacingTop=-20;whiteSpace=wrap;overflow=hidden;rounded=0;" vertex="1" parent="1">
          <mxGeometry x="645" y="150" width="560" height="150" as="geometry" />
        </mxCell>
        <mxCell id="kvP06SVsYaUnIYEFgwCU-30" value="&lt;h1&gt;&lt;font style=&quot;font-size: 18px; font-weight: normal;&quot;&gt;医嘱项目维护 注意&lt;/font&gt;&lt;/h1&gt;&lt;p&gt;样本类型 的逻辑关系&lt;/p&gt;&lt;p&gt;报告周期&lt;/p&gt;&lt;p&gt;需要关联检测项目（维护医嘱前需检测项目启用，否则无法维护）&lt;br&gt;是否指定部分医院送检（若指定，则进行医嘱特殊设置，添加送检单位）&lt;/p&gt;" style="text;html=1;strokeColor=none;fillColor=none;spacing=5;spacingTop=-20;whiteSpace=wrap;overflow=hidden;rounded=0;" vertex="1" parent="1">
          <mxGeometry x="645" y="307" width="480" height="140" as="geometry" />
        </mxCell>
        <mxCell id="kvP06SVsYaUnIYEFgwCU-31" value="" style="strokeWidth=2;html=1;shape=mxgraph.flowchart.annotation_2;align=left;labelPosition=right;pointerEvents=1;direction=south;" vertex="1" parent="1">
          <mxGeometry x="370" y="100" width="180" height="50" as="geometry" />
        </mxCell>
        <mxCell id="kvP06SVsYaUnIYEFgwCU-39" style="edgeStyle=orthogonalEdgeStyle;rounded=0;orthogonalLoop=1;jettySize=auto;html=1;exitX=0.5;exitY=1;exitDx=0;exitDy=0;" edge="1" parent="1" source="kvP06SVsYaUnIYEFgwCU-32" target="kvP06SVsYaUnIYEFgwCU-34">
          <mxGeometry relative="1" as="geometry" />
        </mxCell>
        <mxCell id="kvP06SVsYaUnIYEFgwCU-32" value="starlims分库维护" style="shape=process;whiteSpace=wrap;html=1;backgroundOutline=1;" vertex="1" parent="1">
          <mxGeometry x="300" y="150" width="120" height="60" as="geometry" />
        </mxCell>
        <mxCell id="kvP06SVsYaUnIYEFgwCU-46" style="edgeStyle=orthogonalEdgeStyle;rounded=0;orthogonalLoop=1;jettySize=auto;html=1;exitX=0.5;exitY=1;exitDx=0;exitDy=0;entryX=0.5;entryY=0;entryDx=0;entryDy=0;" edge="1" parent="1" source="kvP06SVsYaUnIYEFgwCU-33" target="kvP06SVsYaUnIYEFgwCU-22">
          <mxGeometry relative="1" as="geometry" />
        </mxCell>
        <mxCell id="kvP06SVsYaUnIYEFgwCU-33" value="irislim分库维护" style="shape=process;whiteSpace=wrap;html=1;backgroundOutline=1;" vertex="1" parent="1">
          <mxGeometry x="485" y="150" width="120" height="60" as="geometry" />
        </mxCell>
        <mxCell id="kvP06SVsYaUnIYEFgwCU-40" style="edgeStyle=orthogonalEdgeStyle;rounded=0;orthogonalLoop=1;jettySize=auto;html=1;exitX=0.5;exitY=1;exitDx=0;exitDy=0;" edge="1" parent="1" source="kvP06SVsYaUnIYEFgwCU-34" target="kvP06SVsYaUnIYEFgwCU-35">
          <mxGeometry relative="1" as="geometry" />
        </mxCell>
        <mxCell id="kvP06SVsYaUnIYEFgwCU-34" value="总库选中项目维护相关测试计划" style="rounded=0;whiteSpace=wrap;html=1;" vertex="1" parent="1">
          <mxGeometry x="300" y="250" width="120" height="60" as="geometry" />
        </mxCell>
        <mxCell id="kvP06SVsYaUnIYEFgwCU-35" value="分库维护项目相关信息，并记录指标中项目的对应编码（iris里维护检测项目里面需要用于新老系统对应）" style="rounded=1;whiteSpace=wrap;html=1;" vertex="1" parent="1">
          <mxGeometry x="295" y="360" width="130" height="80" as="geometry" />
        </mxCell>
        <mxCell id="kvP06SVsYaUnIYEFgwCU-38" value="&lt;h1&gt;&lt;font style=&quot;font-size: 18px; font-weight: normal;&quot;&gt;接收编号配置 含&lt;/font&gt;&lt;/h1&gt;&lt;h1&gt;&lt;font style=&quot;font-size: 12px; font-weight: normal;&quot;&gt;小组配置&lt;/font&gt;&lt;/h1&gt;&lt;p&gt;小组编号配置&lt;/p&gt;" style="text;html=1;strokeColor=none;fillColor=none;spacing=5;spacingTop=-20;whiteSpace=wrap;overflow=hidden;rounded=0;" vertex="1" parent="1">
          <mxGeometry x="650" y="480" width="360" height="120" as="geometry" />
        </mxCell>
      </root>
    </mxGraphModel>
  </diagram>
</mxfile>
